<svg xmlns="http://www.w3.org/2000/svg" viewBox="0 0 40 40" width="40" height="40">
    <path fill="url(#linear_color)" d="M31.6,23.7L25.9,18l0,0l-1-1.9l-2.2-1.7l-2.5,2.5l1.7,2.2l1.9,1l0,0l5.7,5.7l-0.9,0.9l3.9,3.9
	c0.7,0.7,2,0.7,2.7,0l1-1c0.7-0.7,0.7-2,0-2.7l-3.9-3.9C32.5,22.8,31.6,23.7,31.6,23.7z"/>
    <path fill="url(#linear_color)" d="M35.8,20.9c1.3-1.3,1.5-3.2,0.7-4.7L34,18.8l-1.7-1.7l2.5-2.5c-1.5-0.8-3.4-0.5-4.7,0.7
	c-1.1,1.1-1.4,2.5-1,3.9l-8.6,8.6c-0.5,0.5-0.5,1.3,0,1.8c0,0,0,0,0,0l1,0.9c0.5,0.5,1.3,0.5,1.8,0L32,22
	C33.3,22.3,34.7,22,35.8,20.9z"/>
    <g>
        <path fill="url(#linear_color)" d="M4.4,5.6h4.8v25.6H4.4V5.6z M6.1,5.6h15v4.6h-15V5.6z M6.1,16.4h13.1V21H6.1V16.4z"/>
    </g>
    <path fill="url(#linear_color)" d="M31.7,40H8.3C3.7,40,0,36.3,0,31.7V8.3C0,3.7,3.7,0,8.3,0h23.4C36.3,0,40,3.7,40,8.3v23.4C40,36.3,36.3,40,31.7,40z M8.3,1
	C4.3,1,1,4.3,1,8.3v23.4c0,4,3.3,7.3,7.3,7.3h23.4c4,0,7.3-3.3,7.3-7.3V8.3c0-4-3.3-7.3-7.3-7.3C31.7,1,8.3,1,8.3,1z"/>
    <defs>
        <linearGradient id="linear_color" x1="0" y1="0" x2="40" y2="40"
                        gradientUnits="userSpaceOnUse">
            <stop offset="0.02" stop-color="#07C3F2"/>
            <stop offset="0.8699" stop-color="#087CFA"/>
        </linearGradient>
    </defs>
</svg>
