<svg xmlns="http://www.w3.org/2000/svg" viewBox="0 0 13 13" width="13" height="13">
    <path fill="url(#linear_color)" d="M10.3,7.3L8.2,5.2l0,0L7.8,4.5L7,3.9L6.1,4.8l0.6,0.8L7.4,6l0,0l2.1,2.1L9.2,8.4l1.4,1.4
	c0.3,0.3,0.7,0.3,1,0L12,9.5c0.3-0.3,0.3-0.7,0-1l-1.4-1.4C10.6,7,10.3,7.3,10.3,7.3z"/>
    <path fill="url(#linear_color)" d="M11.8,6.3c0.5-0.5,0.5-1.2,0.3-1.7l-0.9,1L10.6,5l0.9-1C11,3.7,10.3,3.8,9.8,4.3C9.4,4.6,9.2,5.2,9.4,5.7
	L6.2,8.8C6.1,9,6.1,9.3,6.2,9.5l0,0l0.4,0.3c0.2,0.2,0.5,0.2,0.7,0l3.2-3.1C10.9,6.8,11.4,6.7,11.8,6.3z"/>
    <path fill="url(#linear_color)"
          d="M1.4,2.4h1.4v7.5H1.4V2.4z M1.9,2.4h4.4v1.3H1.9C1.9,3.8,1.9,2.4,1.9,2.4z M1.9,5.6h3.8v1.3H1.9V5.6z"/>
    <path fill="url(#linear_color)" d="M10.3,13H2.7C1.2,13,0,11.8,0,10.3V2.7C0,1.2,1.2,0,2.7,0h7.6C11.8,0,13,1.2,13,2.7v7.6C13,11.8,11.8,13,10.3,13z M2.7,0.3
	c-1.3,0-2.4,1.1-2.4,2.4v7.6c0,1.3,1.1,2.4,2.4,2.4h7.6c1.3,0,2.4-1.1,2.4-2.4V2.7c0-1.3-1.1-2.4-2.4-2.4C10.3,0.3,2.7,0.3,2.7,0.3z
	"/>
    <defs>
        <linearGradient id="linear_color" x1="0" y1="0" x2="13" y2="13"
                        gradientUnits="userSpaceOnUse">
            <stop offset="0.02" stop-color="#07C3F2"/>
            <stop offset="0.8699" stop-color="#087CFA"/>
        </linearGradient>
    </defs>
</svg>

