<svg xmlns="http://www.w3.org/2000/svg" viewBox="0 0 20 20" width="20" height="20">
    <path fill="#6C707E" d="M15.8,11.85L12.95,9l0,0l-0.5-0.95l-1.1-0.85l-1.25,1.25l0.85,1.1l0.95,0.5l0,0l2.85,2.85l-0.45,0.45l1.95,1.95
	c0.35,0.35,1,0.35,1.35,0l0.5-0.5c0.35-0.35,0.35-1,0-1.35l-1.95-1.95C16.15,11.4,15.8,11.85,15.8,11.85z"/>
    
    <path fill="#6C707E" d="M17.9,10.45c0.65-0.65,0.75-1.6,0.35-2.35l-1.25,1.25l-0.85-0.85l1.25-1.25c-0.75-0.4-1.7-0.25-2.35,0.35
	c-0.55,0.55-0.7,1.25-0.5,1.95l-4.3,4.3c-0.25,0.25-0.25,0.65,0,0.9l0.5,0.45c0.25,0.25,0.65,0.25,0.9,0l4.3-4.3
	C16.65,11.15,17.35,11,17.9,10.45z"/>
    
    <path fill="#6C707E" d="M2.2,2.8h2.4v12.8H2.2V2.8z M3.05,2.8h7.5v2.3h-7.5V2.8z M3.05,8.2h6.55v2.3H3.05V8.2z"/>
</svg>