<svg xmlns="http://www.w3.org/2000/svg" viewBox="0 0 16 16" width="16" height="16">
    <path fill="#6C707E" d="M12.64,9.48L10.36,7.2l0,0l-0.4-0.76l-0.88-0.68l-1,1l0.68,0.88l0.76,0.4l0,0l2.28,2.28l-0.36,0.36l1.56,1.56
	c0.28,0.28,0.8,0.28,1.08,0l0.4-0.4c0.28-0.28,0.28-0.8,0-1.08l-1.56-1.56C12.92,9.12,12.64,9.48,12.64,9.48z"/>
    
    <path fill="#6C707E" d="M14.32,8.36c0.52-0.52,0.6-1.28,0.28-1.88l-1,1l-0.68-0.68l1-1c-0.6-0.32-1.36-0.2-1.88,0.28
	c-0.44,0.44-0.56,1-0.4,1.56l-3.44,3.44c-0.2,0.2-0.2,0.52,0,0.72l0.4,0.36c0.2,0.2,0.52,0.2,0.72,0L12.8,8.8
	C13.32,8.92,13.88,8.8,14.32,8.36z"/>
    
    <path fill="#6C707E" d="M1.76,2.24h1.92v10.24H1.76V2.24z M2.44,2.24h6v1.84h-6V2.24z M2.44,6.56h5.24V8.4H2.44V6.56z"/>
</svg>